<svg xmlns="http://www.w3.org/2000/svg" width="30.664" height="28.5" viewBox="0 0 30.664 28.5"><defs><style>.a{fill:#646d82;}</style></defs><g transform="translate(0 -18.065)"><g transform="translate(9.881 40.929)"><path class="a" d="M174.858,399.834H166a1.022,1.022,0,0,0,0,2.044h8.858a1.022,1.022,0,0,0,0-2.044Z" transform="translate(-164.977 -399.834)"/></g><g transform="translate(9.881 37.705)"><path class="a" d="M174.858,346.006H166a1.022,1.022,0,1,0,0,2.044h8.858a1.022,1.022,0,0,0,0-2.044Z" transform="translate(-164.977 -346.006)"/></g><g transform="translate(0 18.065)"><path class="a" d="M28.279,25H25.027V19.087A1.022,1.022,0,0,0,24,18.065H6.659a1.022,1.022,0,0,0-1.022,1.022V25H2.385A2.388,2.388,0,0,0,0,27.388V37.671a2.388,2.388,0,0,0,2.385,2.385H5.637v5.487a1.022,1.022,0,0,0,1.022,1.022H24a1.022,1.022,0,0,0,1.022-1.022V40.056h3.252a2.388,2.388,0,0,0,2.385-2.385V27.388A2.388,2.388,0,0,0,28.279,25Zm-20.6-4.894h15.3V25H7.681Zm15.3,24.411H7.682V36.158h15.3C22.982,36.412,22.982,44.329,22.982,44.521ZM24,31H21.4a1.022,1.022,0,0,1,0-2.044H24A1.022,1.022,0,1,1,24,31Z" transform="translate(0 -18.065)"/></g></g></svg>